<svg xmlns="http://www.w3.org/2000/svg" xmlns:xlink="http://www.w3.org/1999/xlink" width="2048" zoomAndPan="magnify" viewBox="0 0 1536 1535.999932" height="2048" preserveAspectRatio="xMidYMid meet" version="1.0"><path fill="#ffffff" d="M 1469.335938 666.316406 L 1469.335938 532.992188 L 1402.675781 532.992188 L 1402.675781 399.667969 L 1269.351562 399.667969 L 1269.351562 337 L 1336.011719 337 L 1336.011719 133.324219 L 1269.351562 133.324219 L 1269.351562 0 L 932.351562 0 L 932.351562 133.324219 L 799.335938 133.324219 L 799.335938 266.34375 L 736.664062 266.34375 L 736.664062 133.324219 L 603.339844 133.324219 L 603.339844 0 L 266.34375 0 L 266.34375 133.324219 L 199.679688 133.324219 L 199.679688 337 L 266.34375 337 L 266.34375 399.667969 L 133.324219 399.667969 L 133.324219 532.992188 L 66.664062 532.992188 L 66.664062 666.316406 L 0 666.316406 L 0 1136.332031 L 66.664062 1136.332031 L 66.664062 1269.65625 L 199.988281 1269.65625 L 199.988281 1402.675781 L 266.34375 1402.675781 L 266.34375 1536 L 603.339844 1536 L 603.339844 1402.675781 L 736.664062 1402.675781 L 736.664062 1269.351562 L 799.335938 1269.351562 L 799.335938 1402.675781 L 932.351562 1402.675781 L 932.351562 1536 L 1269.351562 1536 L 1269.351562 1402.675781 L 1336.011719 1402.675781 L 1336.011719 1269.65625 L 1469.335938 1269.65625 L 1469.335938 1136.332031 L 1536 1136.332031 L 1536 666.316406 Z M 1469.335938 666.316406 " fill-opacity="1" fill-rule="nonzero"/><path fill="#000000" d="M 1434.007812 701.335938 L 1434.007812 568.320312 L 1367.347656 568.320312 L 1367.347656 434.996094 L 1234.328125 434.996094 L 1234.328125 301.671875 L 1300.683594 301.671875 L 1300.683594 168.652344 L 1234.328125 168.652344 L 1234.328125 35.328125 L 967.679688 35.328125 L 967.679688 168.652344 L 834.664062 168.652344 L 834.664062 301.671875 L 701.335938 301.671875 L 701.335938 168.652344 L 568.011719 168.652344 L 568.011719 35.328125 L 301.671875 35.328125 L 301.671875 168.652344 L 235.007812 168.652344 L 235.007812 301.671875 L 301.671875 301.671875 L 301.671875 434.996094 L 168.652344 434.996094 L 168.652344 568.320312 L 101.992188 568.320312 L 101.992188 701.335938 L 35.328125 701.335938 L 35.328125 1101.003906 L 101.992188 1101.003906 L 101.992188 1234.328125 L 235.007812 1234.328125 L 235.007812 1367.347656 L 301.671875 1367.347656 L 301.671875 1500.671875 L 568.011719 1500.671875 L 568.011719 1367.347656 L 701.335938 1367.347656 L 701.335938 1234.328125 L 834.664062 1234.328125 L 834.664062 1367.347656 L 967.679688 1367.347656 L 967.679688 1500.671875 L 1234.328125 1500.671875 L 1234.328125 1367.347656 L 1300.683594 1367.347656 L 1300.683594 1234.328125 L 1434.007812 1234.328125 L 1434.007812 1101.003906 L 1500.671875 1101.003906 L 1500.671875 701.335938 Z M 1434.007812 701.335938 " fill-opacity="1" fill-rule="nonzero"/><path fill="#c59151" d="M 1034.34375 1367.347656 L 1034.34375 1234.023438 L 1167.667969 1234.023438 L 1167.667969 1367.347656 Z M 1167.667969 301.671875 L 1167.667969 168.652344 L 1034.34375 168.652344 L 1034.34375 301.976562 L 1101.003906 301.976562 Z M 1367.347656 701.335938 L 1367.347656 1101.003906 L 1234.023438 1101.003906 L 1234.023438 967.679688 L 1100.699219 967.679688 L 1100.699219 1101.003906 L 1034.035156 1101.003906 L 1034.035156 1234.328125 L 900.710938 1234.328125 L 900.710938 1101.003906 L 634.058594 1101.003906 L 634.058594 1234.328125 L 500.734375 1234.328125 L 500.734375 1101.003906 L 434.074219 1101.003906 L 434.074219 967.679688 L 300.75 967.679688 L 300.75 1101.003906 L 167.421875 1101.003906 L 167.421875 701.335938 L 234.085938 701.335938 L 234.085938 568.011719 L 367.410156 568.011719 L 367.410156 434.6875 L 500.734375 434.6875 L 500.734375 301.363281 L 634.058594 301.363281 L 634.058594 434.6875 L 900.710938 434.6875 L 900.710938 301.363281 L 1034.035156 301.363281 L 1034.035156 434.6875 L 1167.359375 434.6875 L 1167.359375 568.320312 L 1300.683594 568.320312 L 1300.683594 701.644531 Z M 434.996094 168.652344 L 368.332031 168.652344 L 368.332031 301.976562 L 501.65625 301.976562 L 501.65625 168.652344 Z M 368.332031 1234.328125 L 368.332031 1367.652344 L 501.65625 1367.652344 L 501.65625 1234.328125 Z M 368.332031 1234.328125 " fill-opacity="1" fill-rule="nonzero"/><path fill="#c5392c" d="M 901.324219 701.335938 L 901.324219 568.011719 L 1034.648438 568.011719 L 1034.648438 701.335938 Z M 568.011719 701.335938 L 634.675781 701.335938 L 634.675781 568.011719 L 501.351562 568.011719 L 501.351562 701.335938 Z M 568.011719 701.335938 " fill-opacity="1" fill-rule="nonzero"/></svg>